<svg id="visual" viewBox="0 0 960 540" width="960" height="540" xmlns="http://www.w3.org/2000/svg" xmlns:xlink="http://www.w3.org/1999/xlink" version="1.1">



<path d="M0 379L137 399L274 347L411 379L549 391L686 325L823 316L960 371L960 541L823 541L686 541L549 541L411 541L274 541L137 541L0 541Z" fill="#0d724a"></path><path d="M0 356L137 415L274 418L411 364L549 422L686 415L823 377L960 416L960 541L823 541L686 541L549 541L411 541L274 541L137 541L0 541Z" fill="#13663a"></path><path d="M0 425L137 395L274 429L411 420L549 442L686 414L823 395L960 399L960 541L823 541L686 541L549 541L411 541L274 541L137 541L0 541Z" fill="#175b2a"></path><path d="M0 447L137 486L274 478L411 481L549 444L686 442L823 459L960 475L960 541L823 541L686 541L549 541L411 541L274 541L137 541L0 541Z" fill="#184f1b"></path><path d="M0 508L137 484L274 485L411 490L549 474L686 496L823 481L960 509L960 541L823 541L686 541L549 541L411 541L274 541L137 541L0 541Z" fill="#18440b"></path></svg>